{"title":"Phata poster nikla hero 1cd x264 hd cam cleaned rip ictv Hindi","uid":8942144,"size":766065467,"categoryP":"video","categoryS":"movies","magnet":"?xt=urn:btih:aef721ad3870a15e852846924462fc7adcac630b&amp;dn=Phata+poster+nikla+hero+1cd+x264+hd+cam+cleaned+rip+ictv+Hindi&amp;tr=udp%3A%2F%2Ftracker.openbittorrent.com%3A80&amp;tr=udp%3A%2F%2Fopen.demonii.com%3A1337&amp;tr=udp%3A%2F%2Ftracker.coppersurfer.tk%3A6969&amp;tr=udp%3A%2F%2Fexodus.desync.com%3A6969","seeders":2,"leechers":0,"uploader":"SJonam","files":1,"time":1379688174,"description":" &lt;a href=&quot;http://s18.postimg.org/q1xcnecvd/9999999999.jpg&quot; rel=&quot;nofollow&quot; target=&quot;_NEW&quot;&gt;http://s18.postimg.org/q1xcnecvd/9999999999.jpg&lt;/a&gt; &lt;a href=&quot;\nhttp://img.ibtimes.com/www/data/images/full/2013/07/15/389144-phata-poster-nikla-hero-poster.jpg&quot; rel=&quot;nofollow&quot; target=&quot;_NEW&quot;&gt;\nhttp://img.ibtimes.com/www/data/images/full/2013/07/15/389144-phata-poster-nikla-hero-poster.jpg&lt;/a&gt; &lt;a href=&quot;\nhttp://t1.someimage.com/pxkipyG.jpg&quot; rel=&quot;nofollow&quot; target=&quot;_NEW&quot;&gt;\nhttp://t1.someimage.com/pxkipyG.jpg&lt;/a&gt; &lt;a href=&quot;\nhttp://t1.someimage.com/uIc9fJY.jpg&quot; rel=&quot;nofollow&quot; target=&quot;_NEW&quot;&gt;\nhttp://t1.someimage.com/uIc9fJY.jpg&lt;/a&gt; &lt;a href=&quot;\nhttp://t1.someimage.com/RHUdE26.jpg&quot; rel=&quot;nofollow&quot; target=&quot;_NEW&quot;&gt;\nhttp://t1.someimage.com/RHUdE26.jpg&lt;/a&gt; &lt;a href=&quot;\nhttp://t1.someimage.com/Q261vth.jpg&quot; rel=&quot;nofollow&quot; target=&quot;_NEW&quot;&gt;\nhttp://t1.someimage.com/Q261vth.jpg&lt;/a&gt; &lt;a href=&quot;\nhttp://t1.someimage.com/TDp82VU.jpg&quot; rel=&quot;nofollow&quot; target=&quot;_NEW&quot;&gt;\nhttp://t1.someimage.com/TDp82VU.jpg&lt;/a&gt; &lt;a href=&quot;\nhttp://t1.someimage.com/yhsSQuR.jpg&quot; rel=&quot;nofollow&quot; target=&quot;_NEW&quot;&gt;\nhttp://t1.someimage.com/yhsSQuR.jpg&lt;/a&gt;\n\nMedia Info - \nGeneral\nComplete name : PHATA POSTER NIKLA HERO -1 CD X264 HD CAM CLEANED RIP- TEAM ICTV EXCLUSIVE.mkv\nFormat : Matroska\nFile size : 731 MiB\nDuration : 2h 18mn\nOverall bit rate : 740 Kbps\nEncoded date : UTC 2013-09-20 11:52:47\nWriting application : mkvmerge v6.2.0 ('Promised Land') built on Apr 28 2013 12:22:01\nWriting library : libebml v1.3.0 + libmatroska v1.4.0\n\nVideo\nID : 1\nFormat : AVC\nFormat/Info : Advanced Video Codec\nFormat profile : &lt;a class=&quot;__cf_email__&quot; href=&quot;/cdn-cgi/l/email-protection&quot; data-cfemail=&quot;074f6e606f474b352936&quot;&gt;[email&amp;#160;protected]&lt;/a&gt;&lt;script cf-hash='f9e31' type=&quot;text/javascript&quot;&gt;\n/* &lt;![CDATA[ */!function(){try{var t=&quot;currentScript&quot;in document?document.currentScript:function(){for(var t=document.getElementsByTagName(&quot;script&quot;),e=t.length;e--;)if(t[e].getAttribute(&quot;cf-hash&quot;))return t[e]}();if(t&amp;&amp;t.previousSibling){var e,r,n,i,c=t.previousSibling,a=c.getAttribute(&quot;data-cfemail&quot;);if(a){for(e=&quot;&quot;,r=parseInt(a.substr(0,2),16),n=2;a.length-n;n+=2)i=parseInt(a.substr(n,2),16)^r,e+=String.fromCharCode(i);e=document.createTextNode(e),c.parentNode.replaceChild(e,c)}}}catch(u){}}();/* ]]&gt; */&lt;/script&gt;\nFormat settings, CABAC : Yes\nFormat settings, ReFrames : 4 frames\nCodec ID : V_MPEG4/ISO/AVC\nDuration : 2h 18mn\nBit rate : 611 Kbps\nWidth : 592 pixels\nHeight : 208 pixels\nDisplay aspect ratio : 2.846\nFrame rate : 8.333 fps\nColor space : YUV\nChroma subsampling : 4:2:0\nBit depth : 8 bits\nScan type : Progressive\nBits/(Pixel*Frame) : 0.595\nStream size : 590 MiB (81%)\nWriting library : x264 core 133 r2334 a3ac64b\nLanguage : English\n\nAudio\nID : 2\nFormat : AC-3\nFormat/Info : Audio Coding 3\nMode extension : CM (complete main)\nCodec ID : A_AC3\nDuration : 2h 18mn\nBit rate mode : Constant\nBit rate : 128 Kbps\nChannel(s) : 2 channels\nChannel positions : Front: L R\nSampling rate : 48.0 KHz\nBit depth : 16 bits\nCompression mode : Lossy\nStream size : 126 MiB (17%)\n\nSample - http://www.sendspace.com/file/1mpmi3\n\nRipper : TJ_DA_KING\n\nSeeding 24x7... Extreme Seeding...\n\n\nEnjoy!\n","torrent":{"xt":"urn:btih:aef721ad3870a15e852846924462fc7adcac630b","amp;dn":"Phata+poster+nikla+hero+1cd+x264+hd+cam+cleaned+rip+ictv+Hindi","amp;tr":["udp%3A%2F%2Ftracker.openbittorrent.com%3A80","udp%3A%2F%2Fopen.demonii.com%3A1337","udp%3A%2F%2Ftracker.coppersurfer.tk%3A6969","udp%3A%2F%2Fexodus.desync.com%3A6969"],"infoHash":"aef721ad3870a15e852846924462fc7adcac630b","infoHashBuffer":{"type":"Buffer","data":[174,247,33,173,56,112,161,94,133,40,70,146,68,98,252,122,220,172,99,11]},"announce":[],"urlList":[]}}